<svg id="svg" version="1.1" xmlns="http://www.w3.org/2000/svg" xmlns:xlink="http://www.w3.org/1999/xlink" width="400" height="400" viewBox="0, 0, 400,400"><g id="svgg"><path id="path0" d="M95.600 31.400 C 95.326 31.730,95.250 32.000,95.431 32.000 C 95.612 32.000,95.544 32.216,95.280 32.480 C 95.016 32.744,94.800 33.374,94.800 33.880 C 94.800 34.386,94.661 34.800,94.491 34.800 C 94.321 34.800,93.959 35.976,93.687 37.412 C 93.414 38.849,93.027 40.334,92.826 40.712 C 92.624 41.091,92.162 42.750,91.799 44.400 C 91.037 47.857,90.374 50.036,89.918 50.580 C 89.743 50.789,89.600 51.543,89.600 52.256 C 89.600 52.969,89.420 53.664,89.200 53.800 C 88.980 53.936,88.800 54.487,88.800 55.024 C 88.800 55.561,88.620 56.000,88.400 56.000 C 88.180 56.000,88.000 56.720,88.000 57.600 C 88.000 58.480,87.820 59.200,87.600 59.200 C 87.380 59.200,87.200 59.639,87.200 60.176 C 87.200 60.713,87.020 61.264,86.800 61.400 C 86.580 61.536,86.400 62.256,86.400 63.000 C 86.400 63.744,86.220 64.464,86.000 64.600 C 85.780 64.736,85.600 65.287,85.600 65.824 C 85.600 66.361,85.420 66.800,85.200 66.800 C 84.980 66.800,84.800 67.419,84.800 68.176 C 84.800 68.933,84.620 69.664,84.400 69.800 C 84.180 69.936,84.000 70.577,84.000 71.224 C 84.000 71.871,83.820 72.400,83.600 72.400 C 83.380 72.400,83.200 73.131,83.200 74.024 C 83.200 75.004,83.042 75.549,82.800 75.400 C 82.562 75.253,82.400 75.729,82.400 76.576 C 82.400 77.359,82.220 78.000,82.000 78.000 C 81.780 78.000,81.600 78.439,81.600 78.976 C 81.600 79.513,81.420 80.064,81.200 80.200 C 80.980 80.336,80.800 80.979,80.800 81.629 C 80.800 82.279,80.642 83.123,80.449 83.505 C 79.860 84.672,79.200 87.008,79.200 87.928 C 79.200 88.408,79.059 88.800,78.887 88.800 C 78.715 88.800,78.534 89.287,78.485 89.882 C 78.436 90.478,78.216 91.144,77.998 91.362 C 77.779 91.581,77.600 92.116,77.600 92.552 C 77.600 93.302,77.065 95.243,76.375 97.000 C 76.072 97.771,75.674 99.452,75.455 100.892 C 75.397 101.272,75.226 101.707,75.075 101.859 C 74.924 102.010,74.800 102.643,74.800 103.267 C 74.800 103.890,74.657 104.400,74.482 104.400 C 74.307 104.400,74.119 105.075,74.064 105.900 C 74.010 106.725,73.793 107.460,73.582 107.533 C 73.372 107.607,73.200 108.192,73.200 108.833 C 73.200 109.475,73.020 110.000,72.800 110.000 C 72.580 110.000,72.400 110.630,72.400 111.400 C 72.400 112.170,72.220 112.800,72.000 112.800 C 71.780 112.800,71.600 113.441,71.600 114.224 C 71.600 115.071,71.438 115.547,71.200 115.400 C 70.962 115.253,70.800 115.721,70.800 116.553 C 70.800 117.323,70.620 118.064,70.400 118.200 C 70.180 118.336,70.000 118.966,70.000 119.600 C 70.000 120.234,69.820 120.864,69.600 121.000 C 69.380 121.136,69.200 121.777,69.200 122.424 C 69.200 123.071,69.020 123.600,68.800 123.600 C 68.580 123.600,68.400 124.129,68.400 124.776 C 68.400 125.423,68.220 126.064,68.000 126.200 C 67.780 126.336,67.600 126.977,67.600 127.624 C 67.600 128.271,67.420 128.800,67.200 128.800 C 66.980 128.800,66.800 129.342,66.800 130.005 C 66.800 130.668,66.642 131.523,66.449 131.905 C 65.865 133.061,65.200 135.404,65.200 136.305 C 65.200 136.771,65.020 137.264,64.800 137.400 C 64.580 137.536,64.400 138.087,64.400 138.624 C 64.400 139.161,64.220 139.600,64.000 139.600 C 63.780 139.600,63.600 140.320,63.600 141.200 C 63.600 142.080,63.420 142.800,63.200 142.800 C 62.980 142.800,62.800 143.239,62.800 143.776 C 62.800 144.313,62.620 144.864,62.400 145.000 C 62.180 145.136,62.000 145.867,62.000 146.624 C 62.000 147.381,61.820 148.000,61.600 148.000 C 61.380 148.000,61.200 148.529,61.200 149.176 C 61.200 149.823,61.041 150.451,60.846 150.571 C 60.651 150.692,60.396 151.287,60.279 151.895 C 60.161 152.503,59.943 153.630,59.795 154.400 C 59.646 155.170,59.340 156.024,59.115 156.298 C 58.890 156.572,58.800 157.157,58.915 157.597 C 59.031 158.038,58.962 158.500,58.762 158.623 C 58.563 158.746,58.400 159.467,58.400 160.224 C 58.400 160.981,58.220 161.600,58.000 161.600 C 57.780 161.600,57.600 162.050,57.600 162.600 C 57.600 163.150,57.420 163.600,57.200 163.600 C 56.980 163.600,56.800 164.219,56.800 164.976 C 56.800 165.733,56.620 166.464,56.400 166.600 C 56.180 166.736,56.000 167.366,56.000 168.000 C 56.000 168.634,55.820 169.264,55.600 169.400 C 55.380 169.536,55.200 170.076,55.200 170.600 C 55.200 171.124,55.020 171.664,54.800 171.800 C 54.580 171.936,54.400 172.667,54.400 173.424 C 54.400 174.181,54.220 174.800,54.000 174.800 C 53.780 174.800,53.600 175.192,53.600 175.672 C 53.600 176.592,52.940 178.928,52.351 180.095 C 52.158 180.477,52.000 181.252,52.000 181.818 C 52.000 182.402,51.827 182.740,51.600 182.600 C 51.359 182.451,51.200 182.988,51.200 183.953 C 51.200 184.833,51.020 185.664,50.800 185.800 C 50.580 185.936,50.400 186.487,50.400 187.024 C 50.400 187.561,50.258 188.000,50.085 188.000 C 49.912 188.000,49.726 188.582,49.672 189.293 C 49.617 190.005,49.399 190.761,49.187 190.973 C 48.974 191.186,48.800 191.763,48.800 192.256 C 48.800 192.749,48.620 193.264,48.400 193.400 C 48.180 193.536,48.000 194.256,48.000 195.000 C 48.000 195.744,47.820 196.464,47.600 196.600 C 47.380 196.736,47.200 197.387,47.200 198.047 C 47.200 198.707,47.058 199.160,46.885 199.052 C 46.712 198.945,46.530 199.332,46.483 199.911 C 46.435 200.491,46.216 201.144,45.998 201.362 C 45.779 201.581,45.600 202.354,45.600 203.080 C 45.600 203.806,45.420 204.400,45.200 204.400 C 44.980 204.400,44.800 205.030,44.800 205.800 C 44.800 206.570,44.658 207.200,44.485 207.200 C 44.312 207.200,44.140 207.602,44.103 208.093 C 44.066 208.584,43.862 209.349,43.649 209.793 C 43.247 210.632,42.771 212.421,42.583 213.800 C 42.523 214.240,42.267 215.320,42.015 216.200 C 41.097 219.393,40.897 220.364,41.113 220.580 C 41.234 220.701,41.123 220.800,40.867 220.800 C 40.610 220.800,40.400 221.340,40.400 222.000 C 40.400 222.660,40.220 223.200,40.000 223.200 C 39.780 223.200,39.600 223.729,39.600 224.376 C 39.600 225.023,39.420 225.664,39.200 225.800 C 38.980 225.936,38.800 226.577,38.800 227.224 C 38.800 227.871,38.620 228.400,38.400 228.400 C 38.180 228.400,38.000 229.041,38.000 229.824 C 38.000 230.607,37.856 231.158,37.680 231.049 C 37.504 230.941,37.316 231.515,37.263 232.326 C 37.209 233.137,36.993 233.860,36.782 233.933 C 36.572 234.007,36.400 234.581,36.400 235.210 C 36.400 235.838,36.220 236.464,36.000 236.600 C 35.780 236.736,35.600 237.366,35.600 238.000 C 35.600 238.634,35.420 239.264,35.200 239.400 C 34.980 239.536,34.800 240.177,34.800 240.824 C 34.800 241.471,34.620 242.000,34.400 242.000 C 34.180 242.000,34.000 242.630,34.000 243.400 C 34.000 244.170,33.820 244.800,33.600 244.800 C 33.380 244.800,33.200 245.340,33.200 246.000 C 33.200 246.660,33.059 247.200,32.887 247.200 C 32.715 247.200,32.534 247.687,32.485 248.282 C 32.436 248.878,32.216 249.544,31.998 249.762 C 31.779 249.981,31.600 250.754,31.600 251.480 C 31.600 252.206,31.420 252.800,31.200 252.800 C 30.980 252.800,30.800 253.441,30.800 254.224 C 30.800 255.007,30.656 255.558,30.480 255.449 C 30.304 255.341,30.116 255.915,30.063 256.726 C 30.009 257.537,29.793 258.260,29.582 258.333 C 29.372 258.407,29.200 258.992,29.200 259.633 C 29.200 260.275,29.058 260.800,28.885 260.800 C 28.712 260.800,28.526 261.385,28.472 262.100 C 28.419 262.815,28.200 263.460,27.987 263.533 C 27.774 263.607,27.600 264.282,27.600 265.033 C 27.600 265.785,27.420 266.400,27.200 266.400 C 26.980 266.400,26.800 267.030,26.800 267.800 C 26.800 268.570,26.659 269.200,26.487 269.200 C 26.315 269.200,26.136 269.660,26.090 270.221 C 26.043 270.783,25.816 271.597,25.584 272.029 C 25.353 272.462,25.264 272.980,25.388 273.181 C 25.512 273.381,25.430 273.658,25.207 273.796 C 24.983 273.934,24.800 274.667,24.800 275.424 C 24.800 276.181,24.620 276.800,24.400 276.800 C 24.180 276.800,24.000 277.520,24.000 278.400 C 24.000 279.280,23.820 280.000,23.600 280.000 C 23.380 280.000,23.200 280.540,23.200 281.200 C 23.200 281.860,23.020 282.400,22.800 282.400 C 22.580 282.400,22.400 283.030,22.400 283.800 C 22.400 284.570,22.220 285.200,22.000 285.200 C 21.780 285.200,21.600 285.729,21.600 286.376 C 21.600 287.023,21.420 287.664,21.200 287.800 C 20.980 287.936,20.800 288.577,20.800 289.224 C 20.800 289.871,20.620 290.400,20.400 290.400 C 20.180 290.400,20.000 291.019,20.000 291.776 C 20.000 292.533,19.820 293.264,19.600 293.400 C 19.380 293.536,19.200 294.187,19.200 294.847 C 19.200 295.507,19.040 295.948,18.843 295.827 C 18.647 295.706,18.377 296.235,18.243 297.003 C 18.110 297.771,17.890 299.032,17.756 299.804 C 17.621 300.576,17.351 301.306,17.156 301.427 C 16.960 301.548,16.800 302.087,16.800 302.624 C 16.800 303.161,16.657 303.600,16.482 303.600 C 16.307 303.600,16.119 304.275,16.064 305.100 C 16.010 305.925,15.793 306.660,15.582 306.733 C 15.372 306.807,15.200 307.392,15.200 308.033 C 15.200 308.675,15.020 309.200,14.800 309.200 C 14.580 309.200,14.400 309.830,14.400 310.600 C 14.400 311.370,14.220 312.000,14.000 312.000 C 13.780 312.000,13.600 312.529,13.600 313.176 C 13.600 313.823,13.420 314.464,13.200 314.600 C 11.828 315.448,13.204 318.400,14.971 318.400 C 15.537 318.400,16.000 318.580,16.000 318.800 C 16.000 319.020,16.720 319.200,17.600 319.200 C 18.480 319.200,19.200 319.380,19.200 319.600 C 19.200 319.820,19.740 320.000,20.400 320.000 C 21.060 320.000,21.600 320.180,21.600 320.400 C 21.600 320.620,22.230 320.800,23.000 320.800 C 23.770 320.800,24.400 320.980,24.400 321.200 C 24.400 321.420,24.910 321.600,25.533 321.600 C 26.157 321.600,26.802 321.735,26.967 321.900 C 27.132 322.065,27.387 322.204,27.533 322.210 C 28.013 322.227,31.780 323.266,32.600 323.607 C 33.455 323.963,34.461 324.200,38.100 324.906 C 39.365 325.152,40.400 325.498,40.400 325.676 C 40.400 325.854,41.131 326.000,42.024 326.000 C 43.004 326.000,43.549 326.158,43.400 326.400 C 43.256 326.633,43.655 326.800,44.353 326.800 C 45.013 326.800,45.664 326.980,45.800 327.200 C 45.936 327.420,46.566 327.600,47.200 327.600 C 47.834 327.600,48.464 327.780,48.600 328.000 C 48.736 328.220,49.377 328.400,50.024 328.400 C 50.671 328.400,51.200 328.580,51.200 328.800 C 51.200 329.020,51.740 329.200,52.400 329.200 C 53.060 329.200,53.600 329.380,53.600 329.600 C 53.600 329.820,54.320 330.000,55.200 330.000 C 56.080 330.000,56.800 330.180,56.800 330.400 C 56.800 330.620,57.340 330.800,58.000 330.800 C 58.660 330.800,59.200 330.942,59.200 331.115 C 59.200 331.288,59.785 331.474,60.500 331.528 C 61.215 331.581,61.860 331.800,61.933 332.013 C 62.007 332.226,62.682 332.400,63.433 332.400 C 64.185 332.400,64.800 332.580,64.800 332.800 C 64.800 333.020,65.430 333.200,66.200 333.200 C 66.970 333.200,67.600 333.380,67.600 333.600 C 67.600 333.820,68.140 334.000,68.800 334.000 C 69.460 334.000,70.000 334.180,70.000 334.400 C 70.000 334.620,70.529 334.800,71.176 334.800 C 71.823 334.800,72.464 334.980,72.600 335.200 C 72.736 335.420,73.467 335.600,74.224 335.600 C 74.981 335.600,75.600 335.780,75.600 336.000 C 75.600 336.220,76.129 336.400,76.776 336.400 C 77.423 336.400,78.064 336.580,78.200 336.800 C 78.336 337.020,78.977 337.200,79.624 337.200 C 80.271 337.200,80.800 337.380,80.800 337.600 C 80.800 337.820,81.329 338.000,81.976 338.000 C 82.623 338.000,83.264 338.180,83.400 338.400 C 83.536 338.620,84.179 338.800,84.829 338.800 C 85.479 338.800,86.323 338.962,86.705 339.161 C 87.489 339.568,90.244 340.402,91.288 340.547 C 91.667 340.600,92.099 340.766,92.249 340.916 C 92.399 341.066,93.399 341.305,94.470 341.447 C 95.541 341.589,96.515 341.862,96.633 342.053 C 96.751 342.244,97.467 342.400,98.224 342.400 C 98.981 342.400,99.600 342.580,99.600 342.800 C 99.600 343.020,100.241 343.200,101.024 343.200 C 101.807 343.200,102.358 343.344,102.249 343.520 C 102.141 343.696,102.715 343.884,103.526 343.937 C 104.337 343.991,105.060 344.207,105.133 344.418 C 105.207 344.628,105.892 344.800,106.657 344.800 C 107.482 344.800,107.947 344.963,107.800 345.200 C 107.653 345.438,108.121 345.600,108.953 345.600 C 109.723 345.600,110.464 345.780,110.600 346.000 C 110.736 346.220,111.387 346.400,112.047 346.400 C 112.745 346.400,113.144 346.567,113.000 346.800 C 112.851 347.042,113.396 347.200,114.376 347.200 C 115.269 347.200,116.000 347.380,116.000 347.600 C 116.000 347.820,116.529 348.000,117.176 348.000 C 117.823 348.000,118.464 348.180,118.600 348.400 C 118.736 348.620,119.387 348.800,120.047 348.800 C 120.745 348.800,121.144 348.967,121.000 349.200 C 120.851 349.442,121.396 349.600,122.376 349.600 C 123.269 349.600,124.000 349.780,124.000 350.000 C 124.000 350.220,124.540 350.400,125.200 350.400 C 125.860 350.400,126.400 350.580,126.400 350.800 C 126.400 351.020,127.030 351.200,127.800 351.200 C 128.570 351.200,129.200 351.380,129.200 351.600 C 129.200 351.820,129.592 352.000,130.072 352.000 C 130.992 352.000,133.328 352.660,134.495 353.249 C 134.877 353.442,135.627 353.600,136.161 353.600 C 136.696 353.600,137.193 353.772,137.267 353.982 C 137.340 354.193,138.088 354.411,138.928 354.466 C 139.769 354.522,140.544 354.710,140.652 354.884 C 140.759 355.058,141.287 355.200,141.824 355.200 C 142.361 355.200,142.800 355.380,142.800 355.600 C 142.800 355.820,143.329 356.000,143.976 356.000 C 144.623 356.000,145.264 356.180,145.400 356.400 C 145.536 356.620,146.141 356.800,146.744 356.800 C 147.347 356.800,148.056 357.016,148.320 357.280 C 148.584 357.544,148.800 357.632,148.800 357.475 C 148.800 357.318,149.417 357.447,150.171 357.762 C 150.926 358.077,152.546 358.461,153.771 358.614 C 154.997 358.767,156.000 359.051,156.000 359.246 C 156.000 359.441,156.630 359.600,157.400 359.600 C 158.170 359.600,158.800 359.780,158.800 360.000 C 158.800 360.220,159.441 360.400,160.224 360.400 C 161.071 360.400,161.547 360.562,161.400 360.800 C 161.250 361.042,161.804 361.200,162.800 361.200 C 163.796 361.200,164.350 361.358,164.200 361.600 C 164.053 361.838,164.529 362.000,165.376 362.000 C 166.159 362.000,166.800 362.180,166.800 362.400 C 166.800 362.620,167.441 362.800,168.224 362.800 C 169.007 362.800,169.558 362.944,169.449 363.120 C 169.341 363.296,169.915 363.484,170.726 363.537 C 171.537 363.591,172.260 363.807,172.333 364.018 C 172.407 364.228,172.981 364.400,173.610 364.400 C 174.238 364.400,174.864 364.580,175.000 364.800 C 175.136 365.020,175.877 365.200,176.647 365.200 C 177.479 365.200,177.947 365.362,177.800 365.600 C 177.653 365.838,178.121 366.000,178.953 366.000 C 179.723 366.000,180.464 366.180,180.600 366.400 C 180.736 366.620,181.276 366.800,181.800 366.800 C 182.324 366.800,182.864 366.980,183.000 367.200 C 183.136 367.420,183.762 367.600,184.390 367.600 C 185.019 367.600,185.593 367.772,185.667 367.982 C 185.740 368.193,186.475 368.410,187.300 368.464 C 188.125 368.519,188.800 368.707,188.800 368.882 C 188.800 369.057,189.340 369.200,190.000 369.200 C 190.660 369.200,191.200 369.380,191.200 369.600 C 191.200 369.820,191.729 370.000,192.376 370.000 C 193.023 370.000,193.652 370.160,193.773 370.356 C 193.894 370.551,194.579 370.813,195.296 370.937 C 198.310 371.457,199.200 371.710,199.200 372.045 C 199.200 372.240,199.830 372.400,200.600 372.400 C 201.370 372.400,202.000 372.580,202.000 372.800 C 202.000 373.020,202.423 373.200,202.940 373.200 C 203.773 373.200,205.387 373.615,207.200 374.296 C 208.118 374.640,208.833 374.788,210.890 375.060 C 211.929 375.197,212.707 375.427,212.618 375.572 C 212.528 375.716,213.025 375.877,213.721 375.931 C 214.417 375.984,215.161 376.201,215.373 376.413 C 215.586 376.626,216.275 376.800,216.904 376.800 C 217.564 376.800,217.943 376.969,217.800 377.200 C 217.651 377.442,218.196 377.600,219.176 377.600 C 220.069 377.600,220.800 377.780,220.800 378.000 C 220.800 378.220,221.192 378.400,221.672 378.400 C 222.472 378.400,224.193 378.860,226.200 379.610 C 226.640 379.774,227.810 380.134,228.800 380.408 C 232.421 381.414,233.416 381.718,234.200 382.059 C 234.640 382.251,235.495 382.446,236.100 382.491 C 236.705 382.537,237.200 382.715,237.200 382.887 C 237.200 383.059,237.729 383.200,238.376 383.200 C 239.023 383.200,239.664 383.380,239.800 383.600 C 239.936 383.820,240.487 384.000,241.024 384.000 C 241.561 384.000,242.000 384.142,242.000 384.315 C 242.000 384.488,242.578 384.674,243.284 384.728 C 243.991 384.782,244.671 384.992,244.796 385.194 C 244.922 385.397,245.707 385.609,246.540 385.665 C 247.374 385.721,248.144 385.910,248.252 386.084 C 248.359 386.258,248.876 386.400,249.400 386.400 C 249.924 386.400,250.464 386.580,250.600 386.800 C 250.736 387.020,251.276 387.200,251.800 387.200 C 252.324 387.200,252.864 387.380,253.000 387.600 C 253.136 387.820,253.766 388.000,254.400 388.000 C 255.034 388.000,255.664 388.180,255.800 388.400 C 255.936 388.620,256.577 388.800,257.224 388.800 C 257.871 388.800,258.400 388.980,258.400 389.200 C 258.400 389.420,258.844 389.600,259.388 389.600 C 259.931 389.600,261.754 390.050,263.439 390.600 C 265.124 391.150,267.109 391.600,267.851 391.600 C 268.593 391.600,269.200 391.780,269.200 392.000 C 269.200 392.220,269.729 392.400,270.376 392.400 C 271.023 392.400,271.664 392.580,271.800 392.800 C 271.936 393.020,272.667 393.200,273.424 393.200 C 274.181 393.200,274.800 393.380,274.800 393.600 C 274.800 393.820,275.102 394.000,275.472 394.000 C 276.224 394.000,278.633 394.713,279.695 395.249 C 280.077 395.442,280.831 395.600,281.371 395.600 C 281.911 395.600,282.464 395.780,282.600 396.000 C 282.736 396.220,283.276 396.400,283.800 396.400 C 284.324 396.400,284.864 396.580,285.000 396.800 C 285.136 397.020,285.867 397.200,286.624 397.200 C 287.381 397.200,288.000 397.380,288.000 397.600 C 288.000 397.820,288.540 398.000,289.200 398.000 C 289.860 398.000,290.400 398.142,290.400 398.315 C 290.400 398.488,290.973 398.673,291.673 398.727 C 292.374 398.780,293.177 399.015,293.459 399.249 C 293.740 399.482,295.417 399.773,297.185 399.894 L 300.400 400.114 300.400 398.881 C 300.400 398.202,300.580 397.536,300.800 397.400 C 301.020 397.264,301.200 396.634,301.200 396.000 C 301.200 395.366,301.380 394.736,301.600 394.600 C 301.820 394.464,302.000 393.924,302.000 393.400 C 302.000 392.876,302.180 392.336,302.400 392.200 C 302.620 392.064,302.800 391.459,302.800 390.856 C 302.800 390.253,302.974 389.586,303.187 389.373 C 303.399 389.161,303.617 388.405,303.672 387.693 C 303.726 386.982,303.912 386.400,304.085 386.400 C 304.258 386.400,304.400 386.008,304.400 385.528 C 304.400 384.608,305.060 382.272,305.649 381.105 C 305.842 380.723,306.000 379.988,306.000 379.472 C 306.000 378.956,306.126 378.408,306.279 378.254 C 306.432 378.101,306.887 376.766,307.290 375.288 C 307.692 373.809,308.130 372.240,308.262 371.800 C 308.395 371.360,308.588 370.235,308.692 369.300 C 308.796 368.365,309.042 367.600,309.240 367.600 C 309.438 367.600,309.600 366.900,309.600 366.045 C 309.600 365.189,310.027 362.984,310.548 361.145 C 311.070 359.305,311.622 357.350,311.775 356.800 C 312.447 354.392,312.829 353.081,314.400 347.800 C 315.316 344.720,316.231 341.615,316.433 340.900 C 316.635 340.185,316.970 339.015,317.177 338.300 C 317.736 336.376,318.305 334.378,318.745 332.800 C 318.959 332.030,319.884 328.880,320.800 325.800 C 322.398 320.428,322.760 319.182,323.561 316.300 C 323.760 315.585,324.945 311.490,326.195 307.200 C 328.727 298.507,328.965 297.683,329.600 295.400 C 330.365 292.652,330.707 291.487,331.600 288.600 C 332.076 287.060,332.631 285.215,332.833 284.500 C 333.035 283.785,333.390 282.525,333.623 281.700 C 333.855 280.875,334.205 279.660,334.400 279.000 C 334.782 277.709,335.384 275.585,335.958 273.500 C 336.155 272.785,336.602 271.300,336.950 270.200 C 337.678 267.901,340.378 258.547,343.244 248.400 C 344.331 244.550,345.375 240.950,345.564 240.400 C 345.753 239.850,346.107 238.680,346.350 237.800 C 347.056 235.253,348.251 231.186,348.996 228.800 C 349.374 227.590,349.855 225.970,350.064 225.200 C 350.274 224.430,350.615 223.215,350.823 222.500 C 351.030 221.785,351.370 220.615,351.577 219.900 C 351.785 219.185,352.145 217.925,352.377 217.100 C 352.610 216.275,352.980 214.970,353.200 214.200 C 353.420 213.430,353.765 212.215,353.967 211.500 C 354.169 210.785,355.083 207.680,355.999 204.600 C 356.915 201.520,357.765 198.640,357.889 198.200 C 358.012 197.760,359.184 193.710,360.493 189.200 C 361.803 184.690,363.047 180.370,363.259 179.600 C 363.472 178.830,363.815 177.615,364.023 176.900 C 364.469 175.363,365.058 173.303,365.567 171.500 C 365.769 170.785,366.324 168.940,366.800 167.400 C 367.276 165.860,367.821 164.060,368.010 163.400 C 368.657 161.147,369.155 159.401,369.577 157.900 C 369.810 157.075,370.190 155.725,370.423 154.900 C 370.655 154.075,370.999 152.860,371.186 152.200 C 371.374 151.540,373.450 144.430,375.800 136.400 C 378.150 128.370,380.226 121.260,380.414 120.600 C 380.601 119.940,380.962 118.680,381.215 117.800 C 382.252 114.194,382.127 114.070,375.800 112.404 C 375.140 112.230,371.090 111.059,366.800 109.802 C 362.510 108.544,357.740 107.158,356.200 106.721 C 354.660 106.285,352.860 105.774,352.200 105.587 C 351.540 105.399,349.740 104.892,348.200 104.460 C 346.660 104.028,344.590 103.414,343.600 103.095 C 342.610 102.776,340.990 102.289,340.000 102.011 C 339.010 101.734,337.750 101.369,337.200 101.200 C 336.650 101.031,335.390 100.668,334.400 100.392 C 331.026 99.454,329.801 99.089,329.000 98.784 C 328.560 98.617,326.490 98.002,324.400 97.417 C 322.310 96.833,319.340 95.995,317.800 95.554 C 316.260 95.114,314.460 94.600,313.800 94.412 C 313.140 94.224,309.720 93.229,306.200 92.200 C 298.272 89.882,295.376 89.045,291.800 88.036 C 290.260 87.601,287.110 86.681,284.800 85.990 C 282.490 85.299,280.015 84.569,279.300 84.367 C 278.585 84.165,277.415 83.830,276.700 83.623 C 274.777 83.064,272.779 82.495,271.200 82.055 C 270.430 81.841,266.650 80.736,262.800 79.600 C 258.950 78.464,255.260 77.390,254.600 77.214 C 253.940 77.037,250.520 76.045,247.000 75.009 C 243.480 73.973,239.970 72.952,239.200 72.740 C 238.430 72.528,237.260 72.195,236.600 72.000 C 235.940 71.805,234.140 71.293,232.600 70.862 C 231.060 70.431,228.990 69.793,228.000 69.445 C 227.010 69.097,225.806 68.809,225.324 68.806 C 224.842 68.803,224.336 68.620,224.200 68.400 C 224.064 68.180,223.610 68.000,223.190 68.000 C 222.242 68.000,219.600 66.768,219.600 66.326 C 219.600 66.147,219.150 66.000,218.600 66.000 C 218.050 66.000,217.600 65.820,217.600 65.600 C 217.600 65.380,217.071 65.200,216.424 65.200 C 215.777 65.200,215.136 65.020,215.000 64.800 C 214.864 64.580,214.133 64.400,213.376 64.400 C 212.619 64.400,212.000 64.220,212.000 64.000 C 212.000 63.780,211.460 63.600,210.800 63.600 L 209.600 63.600 209.600 91.140 C 209.600 106.287,209.441 119.202,209.247 119.840 C 209.052 120.478,208.654 121.810,208.361 122.800 C 203.846 138.076,183.351 142.896,171.814 131.395 C 167.842 127.434,166.410 124.592,165.371 118.600 C 164.670 114.556,164.559 87.272,165.235 85.160 C 165.783 83.448,166.908 81.200,167.216 81.200 C 167.344 81.200,167.798 80.884,168.225 80.498 C 170.580 78.365,174.771 78.777,177.409 81.400 C 179.871 83.848,180.000 84.899,180.000 102.446 C 180.000 116.892,180.039 117.709,180.808 119.215 C 183.275 124.051,190.696 124.404,193.458 119.818 C 195.111 117.072,195.164 116.085,195.182 87.682 L 195.200 60.364 194.218 59.382 C 193.606 58.769,192.778 58.400,192.018 58.400 C 191.348 58.400,190.800 58.258,190.800 58.085 C 190.800 57.912,190.218 57.726,189.507 57.672 C 188.795 57.617,188.039 57.399,187.827 57.187 C 187.614 56.974,187.026 56.800,186.520 56.800 C 186.014 56.800,185.600 56.657,185.600 56.482 C 185.600 56.307,184.925 56.119,184.100 56.064 C 183.275 56.010,182.540 55.793,182.467 55.582 C 182.393 55.372,181.819 55.200,181.190 55.200 C 180.562 55.200,179.936 55.020,179.800 54.800 C 179.065 53.611,176.490 54.436,175.609 56.143 C 172.464 62.236,163.169 59.969,162.244 52.884 C 161.821 49.640,161.310 48.800,159.759 48.800 C 159.038 48.800,158.336 48.620,158.200 48.400 C 158.064 48.180,157.423 48.000,156.776 48.000 C 156.129 48.000,155.600 47.820,155.600 47.600 C 155.600 47.380,155.058 47.200,154.395 47.200 C 153.732 47.200,152.877 47.038,152.495 46.839 C 152.113 46.640,150.990 46.263,150.000 46.000 C 149.010 45.737,147.887 45.360,147.505 45.161 C 147.123 44.962,146.358 44.800,145.805 44.800 C 145.252 44.800,144.800 44.659,144.800 44.487 C 144.800 44.315,144.330 44.136,143.756 44.088 C 143.181 44.041,141.876 43.709,140.856 43.350 C 138.849 42.646,134.990 41.663,132.896 41.323 C 132.179 41.207,131.494 40.951,131.373 40.756 C 131.252 40.560,130.533 40.400,129.776 40.400 C 129.019 40.400,128.400 40.220,128.400 40.000 C 128.400 39.780,127.860 39.600,127.200 39.600 C 126.540 39.600,126.000 39.458,126.000 39.285 C 126.000 39.112,125.418 38.926,124.707 38.872 C 123.995 38.817,123.239 38.599,123.027 38.387 C 122.814 38.174,122.237 38.000,121.744 38.000 C 121.251 38.000,120.736 37.820,120.600 37.600 C 120.464 37.380,119.733 37.200,118.976 37.200 C 118.219 37.200,117.600 37.020,117.600 36.800 C 117.600 36.580,117.060 36.400,116.400 36.400 C 115.740 36.400,115.200 36.220,115.200 36.000 C 115.200 35.780,114.660 35.600,114.000 35.600 C 113.340 35.600,112.800 35.457,112.800 35.282 C 112.800 35.107,112.125 34.919,111.300 34.864 C 110.475 34.810,109.740 34.593,109.667 34.382 C 109.593 34.172,109.008 34.000,108.367 34.000 C 107.725 34.000,107.200 33.820,107.200 33.600 C 107.200 33.380,106.658 33.200,105.995 33.200 C 105.332 33.200,104.477 33.038,104.095 32.839 C 103.713 32.640,102.590 32.262,101.600 31.997 C 100.610 31.733,99.387 31.355,98.881 31.158 C 97.512 30.624,96.161 30.724,95.600 31.400 " stroke="none" fill="#04ecd3" fill-rule="evenodd"></path><path id="path1" d="M177.100 0.272 C 176.275 0.369,175.600 0.617,175.600 0.824 C 175.600 1.031,175.240 1.200,174.800 1.200 C 174.360 1.200,174.000 1.380,174.000 1.600 C 174.000 1.820,173.680 2.000,173.288 2.000 C 172.897 2.000,172.317 2.360,172.000 2.800 C 171.683 3.240,171.189 3.600,170.903 3.600 C 170.329 3.600,166.000 7.776,166.000 8.329 C 166.000 8.520,165.675 8.970,165.278 9.329 C 164.881 9.689,164.307 10.617,164.003 11.391 C 163.699 12.166,163.304 12.800,163.125 12.800 C 162.946 12.800,162.800 13.329,162.800 13.976 C 162.800 14.623,162.620 15.264,162.400 15.400 C 162.180 15.536,162.000 16.526,162.000 17.600 C 162.000 18.674,161.820 19.664,161.600 19.800 C 160.714 20.348,161.094 49.094,162.000 50.000 C 162.544 50.544,162.800 51.333,162.800 52.465 C 162.800 59.532,173.122 61.517,175.626 54.931 C 175.831 54.392,176.179 54.063,176.399 54.200 C 176.664 54.363,176.800 48.958,176.800 38.224 C 176.800 27.675,176.940 22.000,177.200 22.000 C 177.420 22.000,177.600 21.452,177.600 20.783 C 177.600 20.114,177.960 19.180,178.400 18.708 C 178.840 18.236,179.200 17.613,179.200 17.325 C 179.200 17.036,179.520 16.800,179.912 16.800 C 180.303 16.800,180.883 16.440,181.200 16.000 C 181.705 15.299,182.235 15.200,185.494 15.200 C 189.996 15.200,190.703 15.508,192.914 18.438 L 194.000 19.876 194.000 39.538 C 194.000 56.077,194.088 59.200,194.557 59.200 C 195.564 59.200,195.600 60.210,195.600 88.439 C 195.600 115.958,195.448 119.600,194.303 119.600 C 194.136 119.600,194.000 119.868,194.000 120.196 C 194.000 122.535,186.627 124.659,183.921 123.100 C 179.356 120.469,179.431 120.816,179.200 101.200 C 179.001 84.276,178.996 84.194,178.084 82.916 C 175.011 78.608,168.961 78.819,166.500 83.321 C 165.547 85.063,165.429 117.685,166.364 121.000 C 172.919 144.245,204.958 141.977,208.757 118.000 C 209.365 114.163,209.836 16.000,209.246 16.000 C 209.001 16.000,208.800 15.523,208.800 14.940 C 208.800 13.556,206.911 9.714,205.506 8.241 C 204.898 7.603,204.400 6.915,204.400 6.712 C 204.400 6.207,203.354 5.200,202.829 5.200 C 202.593 5.200,202.400 5.020,202.400 4.800 C 202.400 4.580,202.170 4.400,201.888 4.400 C 201.607 4.400,201.117 4.040,200.800 3.600 C 200.483 3.160,199.903 2.800,199.512 2.800 C 199.120 2.800,198.799 2.665,198.797 2.500 C 198.793 2.149,196.863 1.200,196.154 1.200 C 195.886 1.200,195.592 0.975,195.500 0.700 C 195.333 0.198,180.640 -0.144,177.100 0.272 " stroke="none" fill="#f3bc44" fill-rule="evenodd"></path><path id="path2" d="M219.600 66.325 C 219.600 66.768,222.241 68.000,223.190 68.000 C 223.610 68.000,224.064 68.180,224.200 68.400 C 224.336 68.620,224.842 68.803,225.324 68.806 C 225.806 68.809,227.010 69.097,228.000 69.445 C 228.990 69.793,231.060 70.431,232.600 70.862 C 234.140 71.293,236.030 71.826,236.800 72.046 C 237.570 72.265,238.740 72.598,239.400 72.785 C 240.060 72.972,243.480 73.973,247.000 75.009 C 250.520 76.045,253.940 77.037,254.600 77.214 C 255.260 77.390,258.950 78.464,262.800 79.600 C 266.650 80.736,270.430 81.841,271.200 82.055 C 271.970 82.270,273.185 82.615,273.900 82.823 C 275.433 83.268,277.489 83.856,279.300 84.367 C 280.015 84.569,282.490 85.299,284.800 85.990 C 287.110 86.681,290.216 87.590,291.703 88.011 C 295.630 89.121,298.992 90.093,306.200 92.200 C 309.720 93.229,313.140 94.224,313.800 94.412 C 314.460 94.600,316.260 95.114,317.800 95.554 C 319.340 95.995,322.310 96.833,324.400 97.417 C 326.490 98.002,328.560 98.621,329.000 98.794 C 329.440 98.967,330.610 99.330,331.600 99.601 C 332.590 99.871,333.850 100.231,334.400 100.400 C 334.950 100.569,336.210 100.932,337.200 101.208 C 340.364 102.087,341.356 102.380,343.400 103.034 C 344.500 103.387,346.660 104.028,348.200 104.460 C 349.740 104.892,351.540 105.399,352.200 105.587 C 352.860 105.774,354.660 106.285,356.200 106.721 C 357.740 107.158,362.510 108.544,366.800 109.802 C 371.090 111.059,375.140 112.230,375.800 112.404 C 382.069 114.055,382.257 114.234,381.260 117.600 C 381.032 118.370,380.671 119.630,380.459 120.400 C 380.247 121.170,378.150 128.370,375.800 136.400 C 373.450 144.430,371.374 151.540,371.186 152.200 C 370.999 152.860,370.665 154.030,370.445 154.800 C 370.225 155.570,369.865 156.830,369.645 157.600 C 369.425 158.370,369.055 159.675,368.823 160.500 C 368.590 161.325,368.235 162.585,368.033 163.300 C 367.831 164.015,367.276 165.860,366.800 167.400 C 366.324 168.940,365.769 170.785,365.567 171.500 C 365.058 173.303,364.469 175.363,364.023 176.900 C 363.815 177.615,363.472 178.830,363.259 179.600 C 363.047 180.370,361.803 184.690,360.493 189.200 C 359.184 193.710,358.012 197.760,357.889 198.200 C 357.765 198.640,356.915 201.520,355.999 204.600 C 355.083 207.680,354.159 210.830,353.945 211.600 C 353.505 213.178,352.936 215.176,352.377 217.100 C 352.170 217.815,351.820 219.030,351.600 219.800 C 351.380 220.570,351.030 221.785,350.823 222.500 C 350.615 223.215,350.274 224.430,350.064 225.200 C 349.855 225.970,349.374 227.590,348.996 228.800 C 348.251 231.186,347.056 235.253,346.350 237.800 C 346.107 238.680,345.753 239.850,345.564 240.400 C 345.375 240.950,344.331 244.550,343.244 248.400 C 340.378 258.547,337.678 267.901,336.950 270.200 C 336.602 271.300,336.166 272.740,335.981 273.400 C 335.415 275.422,334.820 277.532,334.400 279.000 C 334.180 279.770,333.820 281.030,333.600 281.800 C 333.380 282.570,333.035 283.785,332.833 284.500 C 332.631 285.215,332.076 287.060,331.600 288.600 C 330.743 291.371,330.444 292.385,329.623 295.300 C 329.390 296.125,329.035 297.385,328.833 298.100 C 328.632 298.815,327.445 302.910,326.195 307.200 C 324.945 311.490,323.760 315.585,323.561 316.300 C 322.760 319.182,322.398 320.428,320.800 325.800 C 319.884 328.880,318.959 332.030,318.745 332.800 C 318.530 333.570,318.195 334.740,318.000 335.400 C 317.805 336.060,317.455 337.275,317.223 338.100 C 316.990 338.925,316.635 340.185,316.433 340.900 C 316.231 341.615,315.316 344.720,314.400 347.800 C 312.829 353.081,312.447 354.392,311.775 356.800 C 311.622 357.350,311.070 359.305,310.548 361.145 C 310.027 362.984,309.600 364.649,309.600 364.845 C 309.600 365.049,326.058 365.200,348.401 365.200 L 387.201 365.200 387.101 215.700 L 387.000 66.200 303.300 66.099 C 257.265 66.044,219.600 66.145,219.600 66.325 " stroke="none" fill="#04aceb" fill-rule="evenodd"></path><path id="path3" d="M161.952 51.287 C 162.137 52.398,162.193 52.455,162.319 51.654 C 162.401 51.133,162.303 50.543,162.101 50.341 C 161.879 50.119,161.821 50.493,161.952 51.287 M174.892 56.629 C 174.397 57.383,174.072 58.000,174.169 58.000 C 174.447 58.000,176.104 55.571,175.939 55.406 C 175.857 55.324,175.386 55.874,174.892 56.629 M164.000 57.330 C 164.000 59.178,170.911 60.307,172.800 58.767 L 173.800 57.952 172.520 58.576 C 170.550 59.536,167.770 59.375,165.735 58.183 C 164.781 57.624,164.000 57.240,164.000 57.330 M209.297 91.050 C 209.244 105.818,209.105 118.508,208.989 119.250 C 208.804 120.439,208.828 120.488,209.192 119.658 C 209.467 119.031,209.570 109.575,209.500 91.458 L 209.394 64.200 209.297 91.050 M171.400 79.171 C 170.828 79.396,171.113 79.486,172.400 79.486 C 173.687 79.486,173.972 79.396,173.400 79.171 C 172.960 78.998,172.510 78.856,172.400 78.856 C 172.290 78.856,171.840 78.998,171.400 79.171 M177.273 81.377 C 177.644 81.830,178.228 82.740,178.571 83.400 C 178.914 84.060,179.196 84.315,179.198 83.967 C 179.199 83.618,178.615 82.708,177.900 81.943 C 177.185 81.179,176.903 80.924,177.273 81.377 M165.052 85.700 C 164.686 87.066,164.798 115.569,165.177 117.400 C 165.374 118.352,165.527 112.071,165.554 101.900 C 165.599 85.247,165.555 83.825,165.052 85.700 M179.691 101.920 C 179.601 117.511,179.784 120.000,181.024 120.000 C 181.136 120.000,180.997 119.595,180.714 119.100 C 180.329 118.426,180.147 114.178,179.991 102.200 L 179.782 86.200 179.691 101.920 M194.589 117.000 C 194.200 118.982,193.047 120.785,191.439 121.928 C 190.764 122.408,190.434 122.800,190.706 122.800 C 192.338 122.800,195.674 117.508,195.075 115.870 C 194.980 115.612,194.761 116.120,194.589 117.000 M165.612 120.800 C 165.612 121.130,165.787 121.670,166.000 122.000 C 166.345 122.533,166.388 122.533,166.388 122.000 C 166.388 121.670,166.213 121.130,166.000 120.800 C 165.655 120.267,165.612 120.267,165.612 120.800 M181.200 120.577 C 181.200 121.011,184.536 123.199,185.160 123.175 C 185.541 123.160,185.400 122.990,184.812 122.755 C 184.269 122.538,183.234 121.910,182.512 121.360 C 181.790 120.810,181.200 120.457,181.200 120.577 M208.446 121.267 C 208.421 121.634,208.296 122.264,208.170 122.667 C 207.952 123.362,207.963 123.363,208.397 122.687 C 208.648 122.296,208.773 121.666,208.673 121.287 C 208.511 120.668,208.488 120.666,208.446 121.267 M166.432 123.120 C 166.396 123.698,167.507 126.000,167.821 126.000 C 167.931 126.000,167.771 125.505,167.465 124.900 C 167.160 124.295,166.809 123.530,166.686 123.200 C 166.536 122.797,166.453 122.771,166.432 123.120 M186.705 123.483 C 187.202 123.579,187.922 123.575,188.305 123.475 C 188.687 123.375,188.280 123.296,187.400 123.301 C 186.520 123.305,186.207 123.387,186.705 123.483 M206.994 125.213 C 206.569 126.155,205.690 127.663,205.041 128.563 C 204.392 129.463,204.170 129.946,204.549 129.636 C 205.454 128.894,208.071 124.414,207.900 123.900 C 207.827 123.680,207.419 124.271,206.994 125.213 M169.588 128.982 C 170.733 130.572,172.219 132.089,173.800 133.279 C 175.361 134.455,175.357 134.446,173.636 132.906 C 172.666 132.038,171.226 130.616,170.436 129.746 C 169.646 128.876,169.265 128.533,169.588 128.982 M201.800 132.055 C 200.920 132.928,198.760 134.352,197.000 135.218 C 195.240 136.084,194.029 136.794,194.310 136.796 C 195.368 136.804,200.278 133.964,202.200 132.232 C 203.300 131.241,204.020 130.439,203.800 130.448 C 203.580 130.458,202.680 131.181,201.800 132.055 M181.600 137.182 C 181.930 137.405,182.545 137.591,182.967 137.594 C 183.990 137.602,183.671 137.373,182.200 137.044 C 181.324 136.848,181.162 136.885,181.600 137.182 M191.800 137.200 L 191.000 137.544 191.800 137.566 C 192.240 137.578,192.870 137.413,193.200 137.200 C 193.995 136.686,192.996 136.686,191.800 137.200 M186.500 137.876 C 186.885 137.976,187.515 137.976,187.900 137.876 C 188.285 137.775,187.970 137.693,187.200 137.693 C 186.430 137.693,186.115 137.775,186.500 137.876 " stroke="none" fill="#78d48c" fill-rule="evenodd"></path><path id="path4" d="M162.509 52.400 C 162.509 53.390,162.587 53.795,162.682 53.300 C 162.778 52.805,162.778 51.995,162.682 51.500 C 162.587 51.005,162.509 51.410,162.509 52.400 M162.800 54.586 C 162.800 55.005,164.406 57.600,164.665 57.600 C 164.775 57.600,164.459 56.925,163.963 56.100 C 162.858 54.262,162.800 54.187,162.800 54.586 M173.400 57.676 L 172.600 58.504 173.478 58.050 C 174.402 57.572,175.074 56.783,174.524 56.824 C 174.346 56.837,173.840 57.220,173.400 57.676 M195.000 88.600 C 195.000 104.728,195.132 117.716,195.294 117.462 C 195.456 117.208,195.588 104.220,195.588 88.600 C 195.588 72.980,195.456 59.992,195.294 59.738 C 195.132 59.484,195.000 72.472,195.000 88.600 M171.000 79.596 C 170.128 79.791,170.491 79.872,172.327 79.892 C 173.716 79.908,174.796 79.874,174.727 79.817 C 174.336 79.501,172.031 79.364,171.000 79.596 M168.333 80.683 C 167.036 81.488,165.583 83.961,165.646 85.254 C 165.686 86.059,165.719 86.081,165.869 85.400 C 166.284 83.512,167.001 82.293,168.347 81.183 C 169.946 79.865,169.941 79.686,168.333 80.683 M175.400 80.257 C 177.437 82.064,178.187 82.591,177.402 81.663 C 176.966 81.148,176.247 80.541,175.804 80.314 C 175.362 80.087,175.180 80.062,175.400 80.257 M179.106 98.272 C 179.164 105.932,179.265 113.280,179.329 114.600 C 179.393 115.920,179.463 110.070,179.483 101.600 C 179.504 93.130,179.403 85.782,179.260 85.272 C 179.117 84.761,179.048 90.611,179.106 98.272 M165.638 118.200 C 165.624 119.300,165.765 120.440,165.951 120.734 C 166.149 121.046,166.216 120.382,166.113 119.134 C 165.871 116.203,165.668 115.805,165.638 118.200 M208.582 118.582 C 208.429 119.602,208.394 120.527,208.504 120.637 C 208.614 120.747,208.829 120.002,208.982 118.982 C 209.135 117.961,209.170 117.037,209.060 116.927 C 208.950 116.817,208.735 117.561,208.582 118.582 M179.601 118.120 C 179.598 118.788,180.756 120.634,181.659 121.401 C 182.600 122.200,182.600 122.200,181.944 121.400 C 181.583 120.960,180.908 119.970,180.445 119.200 C 179.982 118.430,179.602 117.944,179.601 118.120 M189.400 123.200 C 188.629 123.531,188.631 123.545,189.476 123.572 C 189.958 123.587,190.464 123.420,190.600 123.200 C 190.892 122.727,190.501 122.727,189.400 123.200 M166.800 123.349 C 166.800 123.781,168.389 126.800,168.616 126.800 C 168.726 126.800,168.430 126.035,167.959 125.100 C 167.032 123.261,166.800 122.911,166.800 123.349 M171.793 131.193 C 172.648 132.069,173.411 132.723,173.487 132.646 C 173.658 132.476,170.817 129.600,170.479 129.600 C 170.346 129.600,170.937 130.317,171.793 131.193 M199.944 133.127 C 199.144 133.717,198.154 134.432,197.744 134.715 C 197.335 134.998,197.769 134.827,198.709 134.336 C 199.650 133.844,200.713 133.118,201.071 132.721 C 201.948 131.752,201.679 131.849,199.944 133.127 M176.400 134.596 C 176.400 134.870,178.849 136.084,179.032 135.901 C 179.119 135.814,178.562 135.444,177.795 135.078 C 177.028 134.712,176.400 134.495,176.400 134.596 M180.000 136.349 C 180.330 136.546,181.230 136.820,182.000 136.956 C 182.944 137.123,183.140 137.092,182.600 136.861 C 181.363 136.332,179.290 135.923,180.000 136.349 M185.513 137.495 C 186.676 137.576,188.476 137.576,189.513 137.493 C 190.551 137.411,189.600 137.345,187.400 137.346 C 185.200 137.347,184.351 137.414,185.513 137.495 " stroke="none" fill="#94cc7c" fill-rule="evenodd"></path></g></svg>